<svg width="1920" height="1155" viewBox="0 0 1920 1155" fill="none" xmlns="http://www.w3.org/2000/svg">
<path d="M0 -1H1920V1155H0V-1Z" fill="#FDF8EE"/>
<path d="M1209.69 675.535C1209.69 677.569 1207.52 679.221 1204.84 679.221C1202.17 679.221 1200 677.569 1200 675.535C1200 673.501 1202.17 671.849 1204.84 671.849C1207.52 671.849 1209.69 673.497 1209.69 675.535Z" stroke="#4D2C5E" stroke-opacity="0.1" stroke-width="2" stroke-miterlimit="10" stroke-linecap="round" stroke-linejoin="round"/>
<path d="M1256.68 707.504C1259.35 707.504 1261.52 705.853 1261.52 703.818C1261.52 701.782 1259.35 700.132 1256.68 700.132C1254 700.132 1251.84 701.782 1251.84 703.818C1251.84 705.853 1254 707.504 1256.68 707.504Z" stroke="#4D2C5E" stroke-opacity="0.1" stroke-width="2" stroke-miterlimit="10" stroke-linecap="round" stroke-linejoin="round"/>
<path d="M1238.44 696.24C1244.15 696.24 1248.77 692.72 1248.77 688.378C1248.77 684.037 1244.15 680.517 1238.44 680.517C1232.74 680.517 1228.11 684.037 1228.11 688.378C1228.11 692.72 1232.74 696.24 1238.44 696.24Z" stroke="#4D2C5E" stroke-opacity="0.1" stroke-width="2" stroke-miterlimit="10" stroke-linecap="round" stroke-linejoin="round"/>
<path d="M1256.44 688.378L1253 692.961L1251.17 698.063L1244.47 699.449L1238.44 702.075L1232.42 699.449L1225.71 698.063L1223.89 692.961L1220.44 688.378L1223.89 683.791L1225.71 678.689L1232.42 677.303L1238.44 674.677L1244.47 677.303L1251.17 678.689L1253 683.791L1256.44 688.378Z" stroke="#4D2C5E" stroke-opacity="0.1" stroke-width="2" stroke-miterlimit="10" stroke-linecap="round" stroke-linejoin="round"/>
<path d="M1251.84 703.818C1251.84 701.784 1254.01 700.132 1256.68 700.132C1258.12 700.132 1259.42 700.616 1260.31 701.38C1263.99 697.793 1266.2 693.283 1266.2 688.374C1266.2 676.707 1253.77 667.249 1238.44 667.249C1223.11 667.249 1210.68 676.707 1210.68 688.374C1210.68 700.041 1223.11 709.499 1238.44 709.499C1243.83 709.499 1248.85 708.328 1253.11 706.306C1252.33 705.65 1251.84 704.779 1251.84 703.818Z" stroke="#4D2C5E" stroke-opacity="0.1" stroke-width="2" stroke-miterlimit="10" stroke-linecap="round" stroke-linejoin="round"/>
<path d="M1238.44 659.791C1225.49 659.791 1214.07 664.782 1207.32 672.373C1208.73 673.016 1209.69 674.192 1209.69 675.54C1209.69 677.574 1207.52 679.226 1204.84 679.226C1204.18 679.226 1203.56 679.123 1202.99 678.942C1201.63 681.899 1200.89 685.07 1200.89 688.378C1200.89 704.165 1217.71 716.965 1238.45 716.965C1259.19 716.965 1276.01 704.165 1276.01 688.378C1276.01 672.592 1259.19 659.791 1238.44 659.791Z" stroke="#4D2C5E" stroke-opacity="0.1" stroke-width="2" stroke-miterlimit="10" stroke-linecap="round" stroke-linejoin="round"/>
<path d="M1114.99 260.704L1045.79 244.972C1040.76 243.829 1037.9 239.798 1039.4 235.967L1053.22 200.744C1054.72 196.914 1060.02 194.74 1065.05 195.883L1134.26 211.615C1139.29 212.758 1142.15 216.789 1140.65 220.619L1126.83 255.842C1125.32 259.668 1120.02 261.847 1114.99 260.704Z" stroke="#4D2C5E" stroke-opacity="0.1" stroke-width="4" stroke-miterlimit="10" stroke-linecap="round"/>
<path d="M1041.03 231.802L1128.46 251.677" stroke="#4D2C5E" stroke-opacity="0.1" stroke-width="4" stroke-miterlimit="10" stroke-linecap="round"/>
<path d="M1084.96 247.512C1084.58 248.467 1083.26 249.012 1082 248.726C1080.75 248.441 1080.03 247.432 1080.41 246.476C1080.78 245.521 1082.11 244.976 1083.36 245.262C1084.62 245.548 1085.33 246.557 1084.96 247.512Z" fill="#4D2C5E" fill-opacity="0.5"/>
<path d="M1090.2 255.073L1070.6 250.618L1067.96 257.346L1087.56 261.802L1090.2 255.073Z" stroke="#4D2C5E" stroke-opacity="0.1" stroke-width="4" stroke-miterlimit="10" stroke-linecap="round"/>
<path d="M1060.69 256.079L1094.53 263.771" stroke="#4D2C5E" stroke-opacity="0.1" stroke-width="4" stroke-miterlimit="10" stroke-linecap="round"/>
<path d="M1787.72 205.194C1809.41 205.194 1827 198.85 1827 191.025C1827 183.199 1809.41 176.855 1787.72 176.855C1766.03 176.855 1748.44 183.199 1748.44 191.025C1748.44 198.85 1766.03 205.194 1787.72 205.194Z" stroke="#4D2C5E" stroke-opacity="0.1" stroke-width="3" stroke-miterlimit="10" stroke-linecap="round" stroke-linejoin="round"/>
<path d="M1803.6 198.411C1814.89 184.31 1816.91 169.581 1808.13 165.511C1799.35 161.442 1783.08 169.574 1771.8 183.674C1760.52 197.775 1758.49 212.504 1767.28 216.573C1776.06 220.643 1792.32 212.511 1803.6 198.411Z" stroke="#4D2C5E" stroke-opacity="0.1" stroke-width="3" stroke-miterlimit="10" stroke-linecap="round" stroke-linejoin="round"/>
<path d="M1808.12 216.567C1816.9 212.498 1814.88 197.768 1803.6 183.668C1792.32 169.568 1776.05 161.436 1767.27 165.505C1758.49 169.574 1760.51 184.304 1771.79 198.404C1783.07 212.504 1799.34 220.636 1808.12 216.567Z" stroke="#4D2C5E" stroke-opacity="0.1" stroke-width="3" stroke-miterlimit="10" stroke-linecap="round" stroke-linejoin="round"/>
<path d="M1787.72 194.775C1790.44 194.775 1792.65 193.096 1792.65 191.025C1792.65 188.953 1790.44 187.274 1787.72 187.274C1785 187.274 1782.79 188.953 1782.79 191.025C1782.79 193.096 1785 194.775 1787.72 194.775Z" stroke="#4D2C5E" stroke-opacity="0.1" stroke-width="3" stroke-miterlimit="10" stroke-linecap="round" stroke-linejoin="round"/>
<path d="M1801.54 638.211L1769.1 643.909L1767.64 639.098C1767.31 637.983 1768.22 636.873 1769.68 636.612L1796.81 631.844C1798.28 631.589 1799.74 632.279 1800.08 633.394L1801.54 638.211Z" stroke="#4D2C5E" stroke-opacity="0.1" stroke-width="3" stroke-miterlimit="10" stroke-linecap="round"/>
<path d="M1790.88 612.338C1805.17 603.565 1807.42 587.635 1795.89 576.755C1784.36 565.875 1763.43 564.167 1749.13 572.939C1734.84 581.711 1732.59 597.642 1744.12 608.522C1755.65 619.401 1776.58 621.11 1790.88 612.338Z" stroke="#4D2C5E" stroke-opacity="0.1" stroke-width="3" stroke-miterlimit="10"/>
<path d="M1785.48 615.026L1754.47 570.259L1750.6 564.826C1730.38 572.935 1722.64 591.978 1733.29 607.363C1743.95 622.747 1768.97 628.641 1789.19 620.532L1785.4 615.063" stroke="#4D2C5E" stroke-opacity="0.1" stroke-width="3" stroke-miterlimit="10" stroke-linecap="round" stroke-linejoin="round"/>
<path d="M1761.3 580.068C1771.46 575.994 1778.16 570.49 1776.28 567.774C1774.4 565.057 1764.64 566.158 1754.49 570.231C1744.34 574.305 1737.63 579.809 1739.51 582.525C1741.4 585.242 1751.15 584.142 1761.3 580.068Z" stroke="#4D2C5E" stroke-opacity="0.1" stroke-width="3" stroke-miterlimit="10"/>
<path d="M1763.69 617.484C1770.85 618.536 1778.52 617.819 1785.48 615.026C1792.44 612.232 1797.55 607.825 1800.46 602.732C1793.3 601.68 1785.63 602.397 1778.67 605.191C1771.71 607.984 1766.6 612.392 1763.69 617.484Z" stroke="#4D2C5E" stroke-opacity="0.1" stroke-width="3" stroke-miterlimit="10"/>
<path d="M1785.51 614.998C1793.63 611.74 1793.27 599.077 1784.7 586.714C1776.14 574.352 1762.61 566.972 1754.49 570.23C1746.37 573.488 1746.73 586.151 1755.29 598.514C1763.86 610.876 1777.39 618.256 1785.51 614.998Z" stroke="#4D2C5E" stroke-opacity="0.1" stroke-width="3" stroke-miterlimit="10"/>
<path d="M1740.56 604.442L1799.39 580.842" stroke="#4D2C5E" stroke-opacity="0.1" stroke-width="3" stroke-miterlimit="10"/>
<path d="M1779.63 623.289L1783.07 634.186" stroke="#4D2C5E" stroke-opacity="0.1" stroke-width="3" stroke-miterlimit="10"/>
<path d="M1765.21 644.923L1806.56 637.377" stroke="#4D2C5E" stroke-opacity="0.1" stroke-width="3" stroke-miterlimit="10" stroke-linecap="round"/>
<path d="M1823.73 480.212L1841.04 467.043L1793.09 430.553L1775.78 443.722L1823.73 480.212Z" stroke="#4D2C5E" stroke-opacity="0.1" stroke-width="3" stroke-miterlimit="10" stroke-linecap="round" stroke-linejoin="round"/>
<path d="M1845.71 483.775L1841.03 467.04L1823.72 480.21L1845.71 483.775Z" stroke="#4D2C5E" stroke-opacity="0.1" stroke-width="3" stroke-miterlimit="10" stroke-linecap="round" stroke-linejoin="round"/>
<path d="M1843.53 475.967L1835.45 482.111" stroke="#4D2C5E" stroke-opacity="0.1" stroke-width="3" stroke-miterlimit="10" stroke-linecap="round" stroke-linejoin="round"/>
<path d="M1770.68 433.682L1779.88 426.68C1782.12 424.976 1785.75 424.976 1787.99 426.68L1793.07 430.552L1775.77 443.721L1770.68 439.849C1768.44 438.145 1768.44 435.38 1770.68 433.682Z" stroke="#4D2C5E" stroke-opacity="0.1" stroke-width="3" stroke-miterlimit="10" stroke-linecap="round" stroke-linejoin="round"/>
<path d="M1797.75 434.105L1780.45 447.28" stroke="#4D2C5E" stroke-opacity="0.1" stroke-width="3" stroke-miterlimit="10" stroke-linecap="round" stroke-linejoin="round"/>
<path d="M1832.38 473.625L1789.1 440.696" stroke="#4D2C5E" stroke-opacity="0.1" stroke-width="3" stroke-miterlimit="10" stroke-linecap="round" stroke-linejoin="round"/>
<path d="M470.96 639.401L467.909 644.926" stroke="#4D2C5E" stroke-opacity="0.1" stroke-width="4" stroke-miterlimit="10" stroke-linecap="round" stroke-linejoin="round"/>
<path d="M494.078 647.119L491.027 652.644" stroke="#4D2C5E" stroke-opacity="0.1" stroke-width="4" stroke-miterlimit="10" stroke-linecap="round" stroke-linejoin="round"/>
<path d="M517.202 654.832L514.151 660.357" stroke="#4D2C5E" stroke-opacity="0.1" stroke-width="4" stroke-miterlimit="10" stroke-linecap="round" stroke-linejoin="round"/>
<path d="M455.521 634.238L453.995 637.004" stroke="#4D2C5E" stroke-opacity="0.1" stroke-width="4" stroke-miterlimit="10" stroke-linecap="round" stroke-linejoin="round"/>
<path d="M463.257 636.824L461.732 639.582" stroke="#4D2C5E" stroke-opacity="0.1" stroke-width="4" stroke-miterlimit="10" stroke-linecap="round" stroke-linejoin="round"/>
<path d="M478.684 641.967L477.159 644.734" stroke="#4D2C5E" stroke-opacity="0.1" stroke-width="4" stroke-miterlimit="10" stroke-linecap="round" stroke-linejoin="round"/>
<path d="M486.415 644.548L484.895 647.311" stroke="#4D2C5E" stroke-opacity="0.1" stroke-width="4" stroke-miterlimit="10" stroke-linecap="round" stroke-linejoin="round"/>
<path d="M501.848 649.696L500.322 652.463" stroke="#4D2C5E" stroke-opacity="0.1" stroke-width="4" stroke-miterlimit="10" stroke-linecap="round" stroke-linejoin="round"/>
<path d="M525.346 657.539L523.827 660.302" stroke="#4D2C5E" stroke-opacity="0.1" stroke-width="4" stroke-miterlimit="10" stroke-linecap="round" stroke-linejoin="round"/>
<path d="M509.579 652.278L508.059 655.04" stroke="#4D2C5E" stroke-opacity="0.1" stroke-width="4" stroke-miterlimit="10" stroke-linecap="round" stroke-linejoin="round"/>
<path d="M513.368 701.715L435.822 626.985L535.504 661.614L513.368 701.715Z" stroke="#4D2C5E" stroke-opacity="0.1" stroke-width="4" stroke-miterlimit="10" stroke-linecap="round" stroke-linejoin="round"/>
<path d="M508.678 678.353L487.464 657.909L514.731 667.378L508.678 678.353Z" stroke="#4D2C5E" stroke-opacity="0.1" stroke-width="4" stroke-miterlimit="10" stroke-linecap="round" stroke-linejoin="round"/>
<path d="M698.774 158.289L670 168.876L727.351 259.143L756.124 248.555L698.774 158.289Z" stroke="#4D2C5E" stroke-opacity="0.1" stroke-width="4" stroke-miterlimit="10" stroke-linecap="round" stroke-linejoin="round"/>
<path d="M705.64 169.121L691.26 174.41" stroke="#4D2C5E" stroke-opacity="0.1" stroke-width="4" stroke-miterlimit="10" stroke-linecap="round" stroke-linejoin="round"/>
<path d="M718.93 190.033L704.54 195.33" stroke="#4D2C5E" stroke-opacity="0.1" stroke-width="4" stroke-miterlimit="10" stroke-linecap="round" stroke-linejoin="round"/>
<path d="M732.22 210.946L717.83 216.242" stroke="#4D2C5E" stroke-opacity="0.1" stroke-width="4" stroke-miterlimit="10" stroke-linecap="round" stroke-linejoin="round"/>
<path d="M745.5 231.866L731.12 237.155" stroke="#4D2C5E" stroke-opacity="0.1" stroke-width="4" stroke-miterlimit="10" stroke-linecap="round" stroke-linejoin="round"/>
<path d="M710.04 176.046L702.85 178.687" stroke="#4D2C5E" stroke-opacity="0.1" stroke-width="4" stroke-miterlimit="10" stroke-linecap="round" stroke-linejoin="round"/>
<path d="M714.48 183.04L707.29 185.688" stroke="#4D2C5E" stroke-opacity="0.1" stroke-width="4" stroke-miterlimit="10" stroke-linecap="round" stroke-linejoin="round"/>
<path d="M723.35 196.997L716.16 199.637" stroke="#4D2C5E" stroke-opacity="0.1" stroke-width="4" stroke-miterlimit="10" stroke-linecap="round" stroke-linejoin="round"/>
<path d="M727.79 203.99L720.6 206.638" stroke="#4D2C5E" stroke-opacity="0.1" stroke-width="4" stroke-miterlimit="10" stroke-linecap="round" stroke-linejoin="round"/>
<path d="M736.66 217.947L729.47 220.588" stroke="#4D2C5E" stroke-opacity="0.1" stroke-width="4" stroke-miterlimit="10" stroke-linecap="round" stroke-linejoin="round"/>
<path d="M741.11 224.941L733.91 227.589" stroke="#4D2C5E" stroke-opacity="0.1" stroke-width="4" stroke-miterlimit="10" stroke-linecap="round" stroke-linejoin="round"/>
<path d="M99.0008 615.372L67.7708 626.536C66.1008 627.137 64.1108 626.589 63.3208 625.318L61.3208 622.077C60.5308 620.806 61.2508 619.291 62.9208 618.69L94.1508 607.526C95.8208 606.925 97.8108 607.473 98.6008 608.744L100.601 611.986C101.391 613.264 100.671 614.779 99.0008 615.372Z" stroke="#4D2C5E" stroke-opacity="0.1" stroke-width="4" stroke-miterlimit="10" stroke-linecap="round"/>
<path d="M111.131 640.729L95.8508 616.514L71.1307 625.547L86.4108 649.762L96.0508 690.278C99.2208 695.308 107.151 697.424 113.751 695.011L140.441 685.255C147.051 682.843 149.831 676.808 146.661 671.785L111.131 640.729Z" stroke="#4D2C5E" stroke-opacity="0.1" stroke-width="4" stroke-miterlimit="10" stroke-linecap="round"/>
<path d="M90.7507 668.034C90.7507 668.034 95.8508 661.748 109.411 662.105C122.971 662.463 125.251 653.065 125.251 653.065" stroke="#4D2C5E" stroke-opacity="0.1" stroke-width="4" stroke-miterlimit="10" stroke-linecap="round"/>
<path d="M142.48 223.705C154.343 223.705 163.96 216.387 163.96 207.359C163.96 198.331 154.343 191.012 142.48 191.012C130.617 191.012 121 198.331 121 207.359C121 216.387 130.617 223.705 142.48 223.705Z" stroke="#4D2C5E" stroke-opacity="0.1" stroke-width="4" stroke-miterlimit="10" stroke-linecap="round" stroke-linejoin="round"/>
<path d="M172.59 239.854C177.334 239.854 181.18 236.927 181.18 233.317C181.18 229.706 177.334 226.78 172.59 226.78C167.846 226.78 164 229.706 164 233.317C164 236.927 167.846 239.854 172.59 239.854Z" stroke="#4D2C5E" stroke-opacity="0.1" stroke-width="4" stroke-miterlimit="10" stroke-linecap="round" stroke-linejoin="round"/>
</svg>
