<svg width="517" height="645" viewBox="0 0 517 645" fill="none" xmlns="http://www.w3.org/2000/svg">
<path d="M259.23 644.092C116.893 644.092 1.50677 637.074 1.50677 628.416C1.50677 619.758 116.893 612.74 259.23 612.74C401.566 612.74 516.953 619.758 516.953 628.416C516.953 637.074 401.566 644.092 259.23 644.092Z" fill="#CED3E6"/>
<path d="M275.298 191.867L249.265 287.063L258.554 276.369C255.12 278.202 251.134 279.608 246.739 280.586C242.344 281.583 237.539 282.152 232.522 282.401C227.504 282.668 222.272 282.615 216.917 282.401C211.561 282.17 206.098 281.778 200.546 281.298H200.511C192.326 280.604 185.119 286.672 184.425 294.857C183.767 302.668 189.301 309.572 196.899 310.818C202.628 311.725 208.447 312.597 214.408 313.291C220.386 313.985 226.507 314.501 232.842 314.643C239.176 314.786 245.742 314.537 252.539 313.558C259.319 312.579 266.347 310.8 273.216 307.846C277.611 305.942 280.742 302.348 282.166 298.131L282.504 297.134L313.732 203.522C317.237 193.006 311.561 181.618 301.027 178.113C290.511 174.607 279.123 180.284 275.618 190.817C275.511 191.138 275.386 191.529 275.298 191.867Z" fill="#EA9B7A"/>
<path d="M265.28 536.957C265.671 536.957 266.063 536.886 266.454 536.743L402.825 487.579C404.604 486.939 405.529 484.964 404.889 483.184C404.248 481.405 402.273 480.462 400.494 481.12L264.123 530.284C262.344 530.925 261.401 532.9 262.059 534.679C262.539 536.085 263.874 536.957 265.28 536.957Z" fill="#C77E2E"/>
<path d="M407.326 536.957C408.732 536.957 410.049 536.085 410.565 534.679C411.205 532.9 410.28 530.925 408.501 530.266L270.511 480.284C268.732 479.643 266.757 480.569 266.098 482.348C265.458 484.127 266.383 486.102 268.162 486.761L406.152 536.743C406.543 536.886 406.935 536.957 407.326 536.957Z" fill="#C77E2E"/>
<path d="M253.144 624.822C256.045 624.822 258.572 622.669 258.981 619.715L283.607 435.782H386.686L410.938 619.715C411.366 622.936 414.319 625.213 417.54 624.786C420.761 624.359 423.038 621.405 422.611 618.185L397.682 429.163C397.291 426.227 394.8 424.038 391.846 424.038H278.447C275.493 424.038 273.002 426.227 272.611 429.145L247.29 618.167C246.863 621.388 249.123 624.359 252.344 624.786C252.628 624.804 252.878 624.822 253.144 624.822Z" fill="#FAAF3A"/>
<path d="M311.294 429.91H384.942C408.269 429.91 433.252 417.134 436.846 394.092C441.633 363.255 442.825 333.415 441.49 306.013C439.978 275.034 425.173 246.209 400.832 226.991C400.832 226.991 386.116 291.102 404.622 379.59C397.54 413.184 311.294 429.91 311.294 429.91Z" fill="#FAAF3A"/>
<path d="M326.65 53.9129C326.65 53.9129 335.404 32.8096 358.59 36.7954C374.782 39.5712 381.686 59.7491 380.743 90.9236C379.355 136.28 394.693 163.611 394.693 163.611L374.337 168.237C374.319 168.219 322.486 90.461 326.65 53.9129Z" fill="#39393B"/>
<path d="M140.92 546.014H173.82C173.82 546.014 181.436 509.501 183.981 489.038C186.543 468.558 187.86 420.035 187.86 420.035C187.86 420.035 214.07 428.558 268.945 425.337C390.529 418.237 344.426 328.913 344.426 328.913C340.316 334.59 315.155 330.657 297.949 333.362C245.155 338.433 199.39 359.145 171.917 370.995C165.297 373.842 159.425 376.867 154.265 380.052C147.646 384.127 143.5 396.529 140.991 412.81C133.5 461.761 140.92 546.014 140.92 546.014Z" fill="#39393B"/>
<path d="M169.728 528.416C170.28 528.416 170.76 528.024 170.885 527.473C175.635 503.985 177.219 474.75 178.5 451.262C179.568 431.778 180.564 413.38 183.073 411.173C185.102 409.376 193.518 410.782 204.159 412.543C225.351 416.067 257.379 421.369 292.682 413.166C311.917 408.682 326.063 399.341 334.711 385.39C349.64 361.333 342.825 331.493 342.753 331.191C342.611 330.55 341.97 330.159 341.33 330.319C340.689 330.461 340.298 331.102 340.458 331.743C340.529 332.027 347.095 360.942 332.682 384.163C324.373 397.561 310.725 406.547 292.13 410.871C257.273 418.985 225.529 413.718 204.515 410.23C191.934 408.148 184.337 406.885 181.472 409.412C178.376 412.152 177.504 425.604 176.116 451.138C174.835 474.554 173.251 503.683 168.536 527.01C168.411 527.651 168.821 528.273 169.461 528.398C169.586 528.416 169.657 528.416 169.728 528.416Z" fill="#585859"/>
<path d="M140.297 529.038H140.315L176.899 528.255C177.557 528.238 178.073 527.704 178.055 527.045C178.038 526.387 177.504 525.871 176.845 525.889L140.262 526.672C139.603 526.69 139.087 527.223 139.105 527.882C139.123 528.522 139.657 529.038 140.297 529.038Z" fill="#585859"/>
<path d="M141.828 588.149H165.048L169.514 560.925L171.97 546.014H143.126L142.664 560.925L141.828 588.149Z" fill="#EA9B7A"/>
<path d="M141.827 588.149H165.048L168.376 567.882L169.514 560.925H142.664L142.432 568.131L141.827 588.149Z" fill="#FAAF3A"/>
<path d="M142.432 568.131L168.376 567.882L169.514 560.925H142.664L142.432 568.131Z" fill="#C77E2E"/>
<path d="M84.532 624.822H172.344C173.002 623.629 173.358 621.957 173.5 619.946C174.052 612.508 171.685 600.658 170.529 593.185C170.386 592.313 170.262 591.494 170.173 590.765C170.013 589.519 169.906 588.469 169.906 587.704C169.906 581.601 164.514 582.651 164.514 582.651C155.635 591.37 145.564 578.291 139.692 582.579C139.692 582.579 139.461 582.757 138.909 583.167C138.411 583.558 137.664 584.163 136.632 585.035C135.137 586.281 133.037 588.096 130.19 590.658C123.215 596.939 111.365 601.067 101.276 605.284C99.9947 605.818 98.8024 606.37 97.6814 606.903C96.8451 607.313 96.0444 607.722 95.2971 608.113C87.0409 612.562 84.4252 616.832 83.8202 619.928C83.233 622.918 84.532 624.822 84.532 624.822Z" fill="#0875F7"/>
<path d="M95.2794 608.131C97.5392 609.928 102.575 613.54 106.614 613.54C106.792 613.54 106.97 613.54 107.148 613.523C109.995 613.291 120.457 608.149 128.981 603.469C133.856 600.782 138.322 598.149 141.525 596.031C146.774 592.562 147.699 591.245 147.895 590.32C148.66 586.85 142.931 584.448 138.909 583.184C138.411 583.576 137.664 584.181 136.632 585.053C141.614 586.405 145.724 588.54 145.529 589.768C145.03 590.8 139.835 594.75 127.415 601.565C117.931 606.761 108.945 610.942 106.952 611.12C104.247 611.334 100.279 608.878 97.6815 606.939C96.8274 607.33 96.0267 607.74 95.2794 608.131Z" fill="#084FC7"/>
<path d="M84.532 624.822H172.344C173.002 623.629 173.358 621.957 173.5 619.946H83.8024C83.233 622.918 84.532 624.822 84.532 624.822Z" fill="#084FC7"/>
<path d="M163.393 624.821H166.009C163.411 621.85 160.973 617.277 161.294 610.764C161.721 602.081 166.917 596.245 170.546 593.184C170.404 592.312 170.28 591.494 170.191 590.764C166.294 593.736 159.728 600.266 159.212 610.658C158.874 616.885 160.92 621.53 163.393 624.821Z" fill="#084FC7"/>
<path d="M131.667 595.854C132.308 595.854 132.913 595.409 133.073 594.75C133.269 593.967 132.788 593.185 132.023 592.989L126.543 591.619C125.76 591.423 124.977 591.903 124.781 592.669C124.585 593.451 125.066 594.234 125.831 594.43L131.312 595.8C131.436 595.836 131.561 595.854 131.667 595.854Z" fill="white"/>
<path d="M137.112 591.298C137.753 591.298 138.358 590.854 138.518 590.195C138.714 589.412 138.233 588.629 137.468 588.434L131.988 587.064C131.205 586.868 130.422 587.348 130.226 588.113C130.03 588.896 130.511 589.679 131.276 589.857L136.756 591.227C136.881 591.281 137.005 591.298 137.112 591.298Z" fill="white"/>
<path d="M126.187 599.039C126.828 599.039 127.432 598.594 127.593 597.935C127.788 597.153 127.308 596.37 126.543 596.192L121.062 594.822C120.279 594.626 119.497 595.106 119.301 595.871C119.105 596.654 119.585 597.437 120.351 597.633L125.831 599.003C125.956 599.039 126.062 599.039 126.187 599.039Z" fill="white"/>
<path d="M120.706 602.117C121.365 602.117 121.952 601.672 122.112 601.014C122.308 600.231 121.827 599.448 121.062 599.252L115.582 597.882C114.799 597.686 114.016 598.167 113.82 598.932C113.625 599.715 114.105 600.498 114.87 600.676L120.351 602.046C120.457 602.099 120.582 602.117 120.706 602.117Z" fill="white"/>
<path d="M114.71 604.946C115.351 604.946 115.956 604.501 116.116 603.843C116.311 603.06 115.831 602.277 115.066 602.099L109.585 600.729C108.803 600.533 108.02 601.014 107.824 601.779C107.628 602.562 108.109 603.344 108.874 603.54L114.354 604.91C114.479 604.928 114.603 604.946 114.71 604.946Z" fill="white"/>
<path d="M108.233 607.366C108.874 607.366 109.479 606.921 109.639 606.263C109.835 605.48 109.354 604.697 108.589 604.501L103.109 603.131C102.326 602.935 101.543 603.416 101.347 604.181C101.151 604.964 101.632 605.747 102.397 605.925L107.877 607.295C108.002 607.348 108.109 607.366 108.233 607.366Z" fill="white"/>
<path d="M405.316 300.586C405.316 300.586 406.348 307.686 396.846 309.678L297.771 312.988C297.771 312.988 291.081 309.625 292.291 301.333C292.291 301.315 334.123 277.81 405.316 300.586Z" fill="#084FC7"/>
<path d="M296.419 333.344C347.842 361.636 403.999 338.86 403.999 338.86C401.259 331.369 399.213 322.917 397.736 315.23C396.027 306.28 395.067 298.379 394.622 294.234C372.753 293.041 319.123 290.746 298.109 295.728L297.949 304.145L296.419 333.344Z" fill="#EA9B7A"/>
<path d="M334.408 319.786C334.782 322.437 335.992 324.465 337.077 324.305C338.18 324.145 338.75 321.867 338.376 319.216C338.002 316.565 336.792 314.536 335.707 314.697C334.604 314.857 334.034 317.134 334.408 319.786Z" fill="#D96C63"/>
<path d="M297.967 304.145C319.871 302.81 362.949 302.348 397.753 315.212C396.045 306.262 395.084 298.362 394.64 294.216C372.771 293.024 319.141 290.728 298.127 295.711L297.967 304.145Z" fill="#D96C63"/>
<path d="M273.536 263.451C273.75 264.091 273.999 264.678 274.283 265.23C274.39 265.444 274.497 265.657 274.604 265.853C277.362 270.96 281.614 275.39 285.191 278.54C285.938 279.198 286.65 279.785 287.308 280.319C288.625 281.387 289.746 282.223 290.511 282.775C291.223 283.273 291.632 283.54 291.632 283.54C291.632 283.593 291.632 283.629 291.65 283.7C291.686 284.074 291.721 284.483 291.757 284.91C291.881 286.529 291.988 288.451 292.059 290.657C292.13 292.419 292.184 294.358 292.219 296.458C292.237 298.006 292.273 299.625 292.291 301.298C321.348 288.308 381.205 296.511 405.316 300.568C404.871 298.486 404.479 296.44 404.106 294.447C402.398 285.248 401.437 276.974 401.063 269.554C400.494 258.522 401.455 241.938 403.803 224.803C403.946 223.682 404.106 222.579 404.266 221.476C404.373 220.746 404.479 220.034 404.604 219.305C405.423 213.931 406.383 208.54 407.469 203.308C412.22 180.497 408.892 156.564 385.761 153.735C384.088 153.522 382.433 153.344 380.814 153.166C369.924 152.009 360.956 151.6 358.465 151.511C358.002 151.493 357.771 151.493 357.771 151.493L313.074 164.483L308.821 165.71C306.383 166.493 304.123 167.258 302.024 168.006C301.134 168.326 300.262 168.646 299.444 168.949C297.273 169.767 295.315 170.55 293.518 171.351C289.942 172.935 287.113 174.483 284.871 176.066C275.066 183.023 276.579 190.888 276.828 206.422C276.828 206.493 276.828 206.564 276.828 206.636C276.828 206.831 276.828 207.027 276.828 207.241C276.828 207.33 276.828 207.419 276.828 207.508C276.828 208.148 276.828 208.771 276.828 209.411C276.81 211.422 276.739 213.415 276.614 215.408C276.454 218.344 276.187 221.262 275.867 224.109C275.742 225.248 275.618 226.387 275.476 227.525C275.351 228.593 275.209 229.643 275.066 230.693C273.323 244.287 271.098 256.209 273.536 263.451Z" fill="#0875F7"/>
<path d="M276.846 206.636C276.846 206.831 276.846 207.027 276.846 207.241C276.846 207.33 276.846 207.419 276.846 207.507C276.846 208.148 276.846 208.771 276.846 209.411L286.241 215.301C286.525 215.479 286.846 215.532 287.166 215.479C287.522 215.426 287.842 215.212 288.056 214.892C288.447 214.269 288.251 213.468 287.646 213.077L277.682 206.831C277.433 206.671 277.13 206.618 276.846 206.636Z" fill="#084FC7"/>
<path d="M338.768 256.956C339.123 256.956 339.479 256.813 339.746 256.529C340.227 255.995 340.191 255.159 339.657 254.678L330.921 246.813C330.387 246.333 329.55 246.369 329.07 246.902C328.59 247.436 328.625 248.272 329.159 248.753L337.896 256.618C338.145 256.831 338.465 256.956 338.768 256.956Z" fill="#084FC7"/>
<path d="M275.102 230.692L281.081 236.084C281.33 236.315 281.65 236.422 281.952 236.422C282.308 236.422 282.664 236.28 282.931 235.995C283.412 235.461 283.376 234.625 282.842 234.144L275.511 227.543C275.387 228.593 275.244 229.643 275.102 230.692Z" fill="#084FC7"/>
<path d="M356.49 225.319C356.686 225.016 356.775 224.642 356.686 224.269C356.526 223.557 355.814 223.13 355.102 223.29L343.661 225.995C342.949 226.155 342.522 226.867 342.682 227.578C342.842 228.29 343.554 228.717 344.266 228.557L355.707 225.852C356.045 225.781 356.312 225.586 356.49 225.319Z" fill="#084FC7"/>
<path d="M397.326 247.775C397.682 247.775 398.038 247.632 398.305 247.348C398.785 246.814 398.75 245.977 398.216 245.497L389.479 237.632C388.946 237.152 388.109 237.187 387.629 237.721C387.148 238.255 387.184 239.091 387.718 239.572L396.455 247.437C396.704 247.668 397.006 247.775 397.326 247.775Z" fill="#084FC7"/>
<path d="M295.618 245.906C295.511 245.568 295.244 245.266 294.906 245.123C294.248 244.838 293.465 245.141 293.18 245.799L288.483 256.582C288.198 257.241 288.501 258.024 289.159 258.308C289.817 258.593 290.6 258.29 290.885 257.632L295.582 246.849C295.707 246.529 295.707 246.191 295.618 245.906Z" fill="#084FC7"/>
<path d="M273.536 263.451C273.75 264.091 273.999 264.678 274.283 265.23C274.39 265.443 274.497 265.657 274.604 265.853L280.992 263.842C281.312 263.735 281.561 263.522 281.721 263.255C281.899 262.952 281.97 262.561 281.846 262.205C281.632 261.511 280.885 261.137 280.209 261.351L273.536 263.451Z" fill="#084FC7"/>
<path d="M309.622 264.394C309.266 264.358 308.892 264.465 308.607 264.732C308.074 265.212 308.038 266.048 308.518 266.582L316.419 275.283C316.899 275.817 317.735 275.853 318.269 275.372C318.803 274.892 318.839 274.056 318.358 273.522L310.458 264.821C310.227 264.572 309.924 264.429 309.622 264.394Z" fill="#084FC7"/>
<path d="M314.266 244.322C314.622 244.269 314.942 244.055 315.155 243.735C315.547 243.13 315.351 242.312 314.746 241.92L304.782 235.675C304.177 235.283 303.358 235.479 302.967 236.084C302.575 236.689 302.771 237.507 303.376 237.899L313.34 244.144C313.625 244.322 313.963 244.376 314.266 244.322Z" fill="#084FC7"/>
<path d="M307.913 206.458C307.682 206.725 307.54 207.08 307.593 207.472C307.664 208.184 308.323 208.717 309.034 208.628L320.725 207.347C321.437 207.276 321.97 206.618 321.881 205.906C321.81 205.194 321.152 204.66 320.44 204.749L308.75 206.031C308.429 206.066 308.127 206.226 307.913 206.458Z" fill="#084FC7"/>
<path d="M324.906 181.102C324.817 180.746 324.586 180.443 324.248 180.265C323.607 179.927 322.807 180.159 322.469 180.799L316.899 191.155C316.561 191.796 316.792 192.596 317.433 192.934C318.074 193.273 318.874 193.041 319.212 192.401L324.782 182.045C324.96 181.742 324.995 181.404 324.906 181.102Z" fill="#084FC7"/>
<path d="M285.173 278.557C285.92 279.216 286.632 279.803 287.291 280.337L288.821 276.422C288.945 276.102 288.945 275.782 288.821 275.479C288.696 275.141 288.429 274.856 288.073 274.714C287.397 274.447 286.632 274.785 286.365 275.461L285.173 278.557Z" fill="#084FC7"/>
<path d="M392.647 258.629C392.825 258.308 392.86 257.935 392.718 257.561C392.469 256.885 391.721 256.529 391.045 256.778L379.978 260.764C379.301 261.013 378.946 261.76 379.195 262.436C379.444 263.113 380.191 263.469 380.867 263.219L391.935 259.234C392.255 259.145 392.504 258.913 392.647 258.629Z" fill="#084FC7"/>
<path d="M387.237 273.593C386.882 273.593 386.526 273.753 386.259 274.038C385.778 274.572 385.832 275.408 386.366 275.888L395.173 283.682C395.707 284.162 396.544 284.109 397.024 283.575C397.504 283.041 397.451 282.205 396.917 281.725L388.109 273.931C387.86 273.7 387.54 273.593 387.237 273.593Z" fill="#084FC7"/>
<path d="M371.276 285.96C371.063 286.244 370.938 286.618 371.01 286.992C371.134 287.703 371.81 288.184 372.522 288.059L384.106 286.084C384.817 285.96 385.298 285.283 385.173 284.572C385.049 283.86 384.373 283.379 383.661 283.504L372.077 285.479C371.757 285.532 371.472 285.71 371.276 285.96Z" fill="#084FC7"/>
<path d="M361.579 175.888C361.668 175.55 361.632 175.159 361.419 174.838C361.027 174.233 360.209 174.055 359.604 174.447L349.728 180.817C349.123 181.208 348.946 182.027 349.337 182.632C349.728 183.237 350.547 183.415 351.152 183.023L361.027 176.653C361.312 176.457 361.508 176.191 361.579 175.888Z" fill="#084FC7"/>
<path d="M294.177 183.397C293.856 183.219 293.483 183.184 293.109 183.308C292.433 183.557 292.077 184.305 292.308 184.981L296.241 196.066C296.49 196.742 297.237 197.098 297.913 196.867C298.589 196.618 298.945 195.87 298.714 195.194L294.782 184.109C294.675 183.806 294.444 183.557 294.177 183.397Z" fill="#084FC7"/>
<path d="M299.461 168.967L305.529 176.76C305.974 177.33 306.792 177.436 307.362 176.991C307.931 176.547 308.038 175.728 307.593 175.159L302.041 168.041C301.152 168.326 300.28 168.646 299.461 168.967Z" fill="#084FC7"/>
<path d="M358.839 276.493C358.714 276.867 358.394 277.134 358.038 277.205C357.86 277.241 357.664 277.241 357.486 277.17C357.291 277.098 338.269 270.942 318.269 279.234C308.109 283.451 299.07 285.052 291.757 284.91C291.721 284.483 291.686 284.091 291.65 283.7C291.65 283.646 291.632 283.593 291.632 283.557C291.632 283.557 291.223 283.291 290.511 282.792C297.7 283.148 306.899 281.618 317.451 277.259C338.216 268.646 357.362 274.874 358.163 275.141C358.714 275.337 359.017 275.942 358.839 276.493Z" fill="#084FC7"/>
<path d="M313.091 164.483C315.6 168.362 320.76 172.757 331.223 172.009C345.654 170.959 355.155 157.187 358.465 151.529C358.02 151.511 357.771 151.511 357.771 151.511L313.091 164.483Z" fill="#084FC7"/>
<path d="M328.429 190.034C328.002 190.123 327.575 190.177 327.148 190.212C323.163 190.532 319.924 189.376 317.54 186.778C310.6 179.198 313.447 161.902 313.572 161.173C313.679 160.586 314.23 160.194 314.8 160.301C315.387 160.408 315.778 160.959 315.671 161.529C315.636 161.707 312.878 178.522 319.106 185.337C321.045 187.454 323.625 188.362 326.953 188.095C340.938 186.974 356.615 151.44 356.775 151.084C357.006 150.55 357.647 150.301 358.18 150.532C358.714 150.764 358.963 151.404 358.732 151.938C358.127 153.415 343.252 187.027 328.429 190.034Z" fill="white"/>
<path d="M284.871 176.066C285.796 186.315 283.269 203.237 276.65 215.408C276.81 212.792 276.881 210.141 276.846 207.508C276.846 207.419 276.846 207.33 276.846 207.241C276.846 206.974 276.828 206.707 276.828 206.44C276.597 190.906 275.084 183.023 284.871 176.066Z" fill="#EA9B7A"/>
<path d="M367.095 194.109C372.22 213.895 390.974 229.767 403.786 224.821C403.946 223.717 404.088 222.596 404.248 221.493C404.355 220.764 404.462 220.052 404.586 219.322C405.405 213.949 406.366 208.557 407.451 203.326C412.202 180.514 408.857 156.582 385.743 153.753C384.07 153.539 382.415 153.361 380.796 153.183C369.248 158.112 361.188 171.333 367.095 194.109Z" fill="#EA9B7A"/>
<path d="M364.462 179.02L334.426 288.878L345.138 276.529C341.17 278.629 336.579 280.266 331.49 281.404C326.419 282.543 320.867 283.202 315.084 283.504C309.283 283.807 303.251 283.753 297.077 283.504C290.903 283.255 284.586 282.792 278.18 282.241H278.145C268.696 281.44 260.387 288.433 259.586 297.881C258.821 306.885 265.209 314.874 273.999 316.298C280.6 317.348 287.326 318.344 294.212 319.145C301.098 319.945 308.162 320.533 315.493 320.711C322.807 320.871 330.387 320.604 338.216 319.465C346.027 318.326 354.141 316.298 362.077 312.864C367.148 310.675 370.761 306.511 372.398 301.654L372.771 300.515L408.821 192.472C412.878 180.337 406.312 167.205 394.177 163.148C382.042 159.091 368.91 165.657 364.853 177.792C364.693 178.183 364.568 178.646 364.462 179.02Z" fill="#EA9B7A"/>
<path d="M351.01 285.373C351.312 285.373 351.615 285.212 351.775 284.928C352.024 284.501 351.864 283.967 351.437 283.718C351.152 283.558 344.586 279.857 337.718 279.323C337.22 279.287 336.792 279.643 336.757 280.141C336.721 280.639 337.077 281.067 337.575 281.102C344.034 281.6 350.494 285.23 350.547 285.266C350.707 285.337 350.867 285.373 351.01 285.373Z" fill="#D96C63"/>
<path d="M340.084 281.404C340.244 281.404 340.405 281.369 340.547 281.28C344.693 278.771 349.711 278.379 349.764 278.379C350.262 278.344 350.618 277.917 350.583 277.436C350.547 276.938 350.138 276.582 349.639 276.618C349.426 276.636 344.141 277.027 339.639 279.767C339.212 280.016 339.088 280.568 339.337 280.995C339.497 281.244 339.8 281.404 340.084 281.404Z" fill="#D96C63"/>
<path d="M313.305 223.504C300.013 226.191 294.194 212.454 294.141 212.312C293.91 211.76 294.177 211.137 294.728 210.924C295.28 210.693 295.903 210.959 296.116 211.511C296.33 212.027 301.347 223.753 312.878 221.422C324.995 218.967 347.593 195.141 347.807 194.892C348.216 194.465 348.892 194.447 349.319 194.856C349.746 195.265 349.764 195.942 349.355 196.369C348.429 197.347 326.063 220.906 313.305 223.504Z" fill="#084FC7"/>
<path d="M334.195 136.973C334.195 136.973 355.529 132.952 361.544 111.422C367.273 90.9235 362.86 80.2829 356.899 69.2153C352.415 60.8701 338.18 49.6067 318.234 53.6459C298.091 57.7206 283.02 68.0765 280.796 84.6424C276.65 115.639 301.65 153.45 334.195 136.973Z" fill="#39393B"/>
<path d="M360.547 114.749C360.938 114.749 361.312 114.553 361.508 114.18C361.899 113.504 370.867 97.3648 363.412 76.1192C358.75 62.8451 349.586 56.9198 342.7 54.2686C335.262 51.4038 329.017 51.6885 328.75 51.6885C328.145 51.7241 327.664 52.2401 327.7 52.8629C327.736 53.4678 328.234 53.9483 328.857 53.9127C328.91 53.9127 334.978 53.6636 341.988 56.3682C351.312 59.9803 357.807 66.8665 361.312 76.8487C368.412 97.0979 359.657 112.916 359.568 113.077C359.266 113.61 359.444 114.287 359.978 114.589C360.173 114.696 360.351 114.749 360.547 114.749Z" fill="#FAAF3A"/>
<path d="M292.824 115.087C292.824 115.087 285.885 109.607 284.052 116.867C282.219 124.127 287.38 137.027 295.458 133.112L292.824 115.087Z" fill="#D96C63"/>
<path d="M299.604 128.433C303.056 129.571 306.099 132.632 306.881 136.422C308.02 142.08 304.355 147.596 298.714 148.753C293.056 149.892 287.54 146.226 286.383 140.586C285.529 136.351 287.362 132.187 290.725 129.892C291.846 129.109 293.145 128.557 294.568 128.272C294.604 128.272 294.639 128.255 294.675 128.255C294.871 128.966 294.8 129.536 294.39 129.981C293.252 130.283 292.219 130.799 291.312 131.475C288.696 133.468 287.291 136.831 287.985 140.265C288.945 145.034 293.625 148.13 298.394 147.169C303.163 146.208 306.259 141.529 305.298 136.76C304.586 133.29 302.024 130.835 298.803 130.052L299.604 128.433Z" fill="#FAAF3A"/>
<path d="M313.856 146.209L316.757 164.394C316.757 164.394 330.369 178.291 355.227 153.362C348.554 148.397 346.01 136.867 346.793 129.429C346.793 129.429 344.835 130.604 341.81 133.344C341.223 133.878 340.458 134.287 339.728 134.803C333.163 139.251 323.091 145.07 313.856 146.209Z" fill="#EA9B7A"/>
<path d="M313.856 146.209L315.227 154.821C322.682 151.493 335.867 144.394 341.81 133.326C341.17 133.789 340.458 134.269 339.728 134.785C333.163 139.251 323.091 145.07 313.856 146.209Z" fill="#39393B"/>
<path d="M286.098 110.71C286.49 112.632 286.846 114.465 287.219 116.208C287.611 118.095 287.985 119.874 288.358 121.547C291.116 134.127 293.376 140.87 297.042 143.397C315.6 156.155 345.796 130.319 346.775 129.482C346.793 129.465 346.793 129.465 346.793 129.465C346.81 127.988 346.81 126.511 346.793 125.07C346.561 112.828 344.479 101.831 341.17 91.671C339.515 80.5678 330.903 71.6709 319.817 69.9983C308.323 68.2724 299.675 74.9272 294.266 77.8631C286.098 82.3115 282.896 94.6781 286.098 110.71Z" fill="#EA9B7A"/>
<path d="M340.529 80.2474C340.529 80.2474 327.54 55.2651 301.632 62.2402C275.725 69.2153 274.355 81.2438 273.892 87.2581C273.429 93.2723 287.308 82.6139 287.308 82.6139C287.308 82.6139 287.789 94.6424 292.415 90.9414C298.091 86.3862 304.426 76.5819 304.426 76.5819C304.426 76.5819 319.853 91.7421 334.515 87.6495C342.86 85.3364 340.529 80.2474 340.529 80.2474Z" fill="#39393B"/>
<path d="M308.714 135.212C312.077 135.212 314.39 132.881 314.497 132.757C314.853 132.383 314.853 131.796 314.479 131.44C314.106 131.084 313.536 131.084 313.18 131.458C313.056 131.582 310.387 134.233 306.864 133.023C306.383 132.863 305.849 133.112 305.689 133.593C305.529 134.073 305.778 134.607 306.259 134.767C307.113 135.087 307.931 135.212 308.714 135.212Z" fill="#D96C63"/>
<path d="M316.454 120.087C316.454 120.087 303.963 123.788 297.486 123.788C297.486 123.788 300.725 133.041 309.978 129.803C317.184 127.276 316.454 120.087 316.454 120.087Z" fill="white"/>
<path d="M293.269 94.0732C293.269 94.0732 296.508 93.7351 295.992 96.8846C295.458 100.034 288.429 98.1123 284.942 104.411C284.942 104.411 281.579 97.8098 293.269 94.0732Z" fill="#39393B"/>
<path d="M307.7 91.1548C307.7 91.1548 304.586 92.1157 306.294 94.8025C308.002 97.4894 313.732 92.9876 319.39 97.436C319.39 97.436 319.906 90.0516 307.7 91.1548Z" fill="#39393B"/>
<path d="M313.323 113.699C313.625 115.176 316.917 115.763 320.707 114.998C324.479 114.233 327.291 112.418 326.988 110.924C326.686 109.447 323.394 108.86 319.604 109.625C315.832 110.39 313.02 112.223 313.323 113.699Z" fill="#D96C63"/>
<path d="M276.454 114.678L286.543 112.952C286.597 113.379 286.703 113.806 286.792 114.216C286.81 114.287 286.828 114.358 286.864 114.429L276.703 116.155C276.294 116.226 275.903 115.942 275.831 115.532C275.76 115.141 276.027 114.749 276.454 114.678Z" fill="white"/>
<path d="M303.394 106.066C303.394 105.55 303.412 105.034 303.483 104.536C303.821 101.795 305.031 99.2687 306.881 97.3114C308.59 95.5143 310.814 94.1975 313.394 93.6281C313.429 93.6103 313.483 93.6103 313.518 93.5925C319.426 92.3826 325.244 95.4787 327.647 100.746C327.86 101.208 328.038 101.671 328.198 102.151C328.341 102.578 328.447 103.023 328.554 103.468C329.23 106.778 328.572 110.052 326.917 112.721C326.348 113.628 325.671 114.464 324.906 115.194C323.234 116.813 321.116 117.988 318.679 118.486C314.568 119.34 310.529 118.094 307.629 115.497C305.671 113.753 304.23 111.368 303.661 108.61C303.661 108.593 303.661 108.593 303.661 108.575C303.483 107.738 303.394 106.902 303.394 106.066ZM318.358 117.009C318.429 116.991 318.483 116.991 318.536 116.973C321.721 116.262 324.301 114.233 325.814 111.582C327.113 109.287 327.629 106.546 327.059 103.771C326.935 103.201 326.775 102.65 326.579 102.116C326.561 102.08 326.543 102.045 326.543 102.009C324.96 97.8986 321.099 95.105 316.757 94.8559C315.796 94.8025 314.817 94.8559 313.821 95.0694C311.686 95.5143 309.835 96.5285 308.358 97.9342C305.654 100.514 304.301 104.393 305.102 108.308C306.383 114.358 312.308 118.272 318.358 117.009Z" fill="white"/>
<path d="M280.778 100.87C281.116 100.692 281.472 100.532 281.846 100.372C282.273 100.194 282.718 100.052 283.162 99.9094C283.483 99.8204 283.785 99.7315 284.123 99.6781C284.728 99.5535 285.315 99.4824 285.903 99.4468C286.614 99.3934 287.326 99.4112 288.02 99.5002C289.96 99.7137 291.792 100.354 293.412 101.368C295.191 102.472 296.703 104.02 297.735 105.888C298.02 106.368 298.251 106.867 298.465 107.365C298.483 107.401 298.483 107.418 298.501 107.454C298.767 108.13 298.981 108.842 299.141 109.571C300.155 114.482 298.18 119.322 294.461 122.205C293.251 123.148 291.864 123.877 290.333 124.322C290.102 124.393 289.871 124.465 289.622 124.5C289.497 124.536 289.39 124.554 289.266 124.589C288.038 124.838 286.81 124.909 285.618 124.803C285.422 124.785 285.226 124.767 285.049 124.749C284.533 124.678 284.017 124.589 283.5 124.447C282.557 124.198 281.632 123.842 280.778 123.397C277.522 121.689 275.031 118.593 274.23 114.714C273.073 109.02 275.903 103.433 280.778 100.87ZM275.725 114.393C275.778 114.643 275.831 114.874 275.903 115.105C275.992 115.443 276.098 115.764 276.223 116.102C277.113 118.468 278.75 120.39 280.814 121.653C281.561 122.116 282.38 122.49 283.234 122.774C283.767 122.952 284.301 123.077 284.871 123.166C285.031 123.201 285.191 123.219 285.351 123.237C286.525 123.379 287.753 123.344 288.981 123.095C289.088 123.077 289.212 123.041 289.319 123.023C289.39 123.006 289.461 122.988 289.515 122.97C291.312 122.507 292.913 121.618 294.212 120.425C294.408 120.248 294.586 120.07 294.764 119.892C297.237 117.329 298.447 113.61 297.682 109.856C297.504 109.02 297.237 108.201 296.899 107.454C295.778 104.998 293.821 103.094 291.454 101.973C289.995 101.28 288.376 100.906 286.703 100.906C286.436 100.906 286.17 100.924 285.885 100.941C285.404 100.977 284.924 101.048 284.444 101.137C284.088 101.208 283.75 101.297 283.412 101.404C282.949 101.546 282.504 101.724 282.059 101.92C281.721 102.08 281.383 102.258 281.045 102.436C277.006 104.803 274.728 109.554 275.725 114.393Z" fill="white"/>
<path d="M343.732 103.041C343.821 103.023 343.91 102.987 343.981 102.934C344.337 102.703 344.426 102.24 344.212 101.902C339.159 94.0017 327.006 101.101 326.899 101.173C326.543 101.386 326.419 101.849 326.632 102.205C326.846 102.56 327.309 102.685 327.664 102.471C327.771 102.4 338.679 96.048 342.949 102.721C343.109 102.97 343.43 103.094 343.732 103.041Z" fill="white"/>
<path d="M297.931 107.792C298.127 107.756 298.287 107.632 298.412 107.472C300.031 104.981 303.483 106.102 303.518 106.102C303.91 106.226 304.337 106.013 304.461 105.621C304.586 105.23 304.373 104.803 303.981 104.678C302.397 104.144 298.928 103.877 297.13 106.653C296.899 107.009 297.006 107.472 297.362 107.685C297.54 107.792 297.735 107.828 297.931 107.792Z" fill="white"/>
<g opacity="0.8">
<g opacity="0.8">
<g opacity="0.8">
<g opacity="0.8">
<g opacity="0.8">
<g opacity="0.8">
<g opacity="0.8">
<path opacity="0.8" d="M287.219 116.208C287.611 118.094 287.985 119.874 288.358 121.546C291.792 120.71 294.266 119.02 293.981 117.614C293.679 116.226 290.725 115.621 287.219 116.208Z" fill="#D96C63"/>
</g>
</g>
</g>
</g>
</g>
</g>
</g>
<path d="M310.671 106.244C311.081 108.29 312.344 109.749 313.483 109.518C314.622 109.287 315.209 107.454 314.8 105.408C314.39 103.361 313.127 101.902 311.988 102.133C310.849 102.365 310.262 104.198 310.671 106.244Z" fill="#39393B"/>
<path d="M290.494 110.336C290.903 112.383 292.166 113.842 293.305 113.61C294.444 113.379 295.031 111.546 294.622 109.5C294.212 107.454 292.949 105.995 291.81 106.226C290.671 106.457 290.084 108.29 290.494 110.336Z" fill="#39393B"/>
<path d="M300.921 115.817C299.942 116.012 299.248 115.977 299.195 115.977C298.963 115.959 298.732 115.852 298.572 115.674C298.412 115.496 298.358 115.247 298.376 115.016L299.675 105.496C299.746 105.034 300.173 104.696 300.636 104.767C301.098 104.838 301.437 105.265 301.365 105.728L300.209 114.215C301.063 114.091 302.344 113.735 303.501 112.774C303.856 112.471 304.408 112.525 304.711 112.881C305.013 113.237 304.96 113.788 304.604 114.091C303.34 115.123 301.97 115.603 300.921 115.817Z" fill="#39393B"/>
<path d="M338.447 122.543C338.59 122.756 342.54 128.433 346.757 129.465C346.775 129.447 346.775 129.447 346.775 129.447C346.81 127.97 346.793 126.493 346.775 125.052C346.632 125.07 342.611 125.176 338.447 122.543Z" fill="#39393B"/>
<path d="M339.319 107.632C339.319 107.632 345.262 95.0338 352.967 102.418C359.319 108.521 353.768 128.877 342.736 124.518L339.319 107.632Z" fill="#EA9B7A"/>
<path d="M353.928 118.504C357.38 119.642 360.422 122.703 361.205 126.493C362.344 132.151 358.679 137.667 353.038 138.824C347.38 139.963 341.864 136.297 340.707 130.657C339.853 126.422 341.686 122.258 345.049 119.963C346.17 119.18 347.469 118.628 348.892 118.343C348.928 118.343 348.963 118.326 348.999 118.326C349.195 119.037 349.106 119.607 348.714 120.052C347.576 120.354 346.543 120.87 345.636 121.546C343.02 123.539 341.615 126.902 342.309 130.336C343.269 135.105 347.949 138.201 352.718 137.24C357.487 136.279 360.583 131.6 359.622 126.831C358.928 123.361 356.348 120.906 353.127 120.123L353.928 118.504Z" fill="#FAAF3A"/>
<path d="M343.198 121.013C343.163 121.013 343.145 121.031 343.109 121.031C342.647 121.066 342.22 120.728 342.184 120.248C341.312 110.728 348.501 105.906 348.803 105.71C349.195 105.443 349.729 105.568 349.995 105.959C350.262 106.351 350.138 106.885 349.746 107.152C349.479 107.329 343.109 111.636 343.892 120.105C343.91 120.532 343.608 120.924 343.198 121.013Z" fill="#39393B"/>
<path d="M349.995 114.34C349.817 114.376 349.604 114.358 349.426 114.251C348.572 113.806 346.063 112.81 344.693 113.468C344.266 113.682 343.75 113.504 343.554 113.077C343.341 112.65 343.519 112.134 343.946 111.938C346.33 110.781 349.817 112.543 350.209 112.739C350.636 112.952 350.796 113.468 350.565 113.895C350.458 114.127 350.227 114.287 349.995 114.34Z" fill="#39393B"/>
<path d="M331.668 86.2617C331.668 86.2617 339.657 107.952 340.084 112.329C340.672 118.29 348.554 97.8632 340.636 80.4254L331.668 86.2617Z" fill="#39393B"/>
<path d="M198.18 546.121H231.08C231.08 546.121 238.696 509.608 241.241 489.145C243.803 468.665 245.12 420.142 245.12 420.142C245.12 420.142 271.33 428.665 326.205 425.444C447.789 418.344 401.686 329.02 401.686 329.02C397.575 334.696 366.757 342.508 349.568 345.23C296.775 350.301 256.65 359.269 229.176 371.12C222.557 373.967 216.685 376.992 211.525 380.177C204.906 384.252 200.76 396.654 198.251 412.935C190.76 461.885 198.18 546.121 198.18 546.121Z" fill="#39393B"/>
<path d="M227.006 528.54C227.557 528.54 228.038 528.149 228.162 527.597C232.913 504.11 234.497 474.875 235.778 451.387C236.845 431.903 237.842 413.505 240.351 411.298C242.379 409.501 250.796 410.907 261.436 412.668C282.629 416.191 314.657 421.494 349.96 413.291C369.195 408.807 383.341 399.465 391.988 385.515C406.917 361.458 400.102 331.618 400.031 331.316C399.889 330.675 399.248 330.284 398.607 330.444C397.967 330.586 397.575 331.227 397.736 331.867C397.807 332.152 404.373 361.067 389.96 384.287C381.65 397.686 368.002 406.672 349.408 410.996C314.55 419.11 282.806 413.843 261.792 410.355C249.212 408.273 241.614 407.01 238.749 409.537C235.653 412.277 234.781 425.729 233.394 451.263C232.112 474.679 230.529 503.807 225.813 527.135C225.689 527.775 226.098 528.398 226.739 528.523C226.845 528.523 226.917 528.54 227.006 528.54Z" fill="#585859"/>
<path d="M197.557 529.145H197.575L234.159 528.362C234.817 528.345 235.333 527.811 235.315 527.152C235.297 526.494 234.764 525.978 234.105 525.996L197.522 526.779C196.863 526.797 196.347 527.33 196.365 527.989C196.401 528.647 196.917 529.145 197.557 529.145Z" fill="#585859"/>
<path d="M199.087 588.274H222.308L226.774 561.032L229.23 546.121H200.386L199.924 561.032L199.087 588.274Z" fill="#EA9B7A"/>
<path d="M199.087 588.274H222.308L225.635 567.989L226.774 561.031H199.924L199.71 568.238L199.087 588.274Z" fill="#FAAF3A"/>
<path d="M199.71 568.238L225.636 567.989L226.774 561.031H199.924L199.71 568.238Z" fill="#C77E2E"/>
<path d="M141.792 624.946H229.621C230.28 623.754 230.636 622.082 230.778 620.071C231.329 612.633 228.963 600.783 227.806 593.309C227.664 592.437 227.539 591.619 227.45 590.889C227.29 589.644 227.184 588.594 227.184 587.829C227.184 581.726 221.792 582.776 221.792 582.776C212.913 591.494 202.842 578.434 196.97 582.704C196.97 582.704 196.739 582.882 196.187 583.292C195.689 583.683 194.941 584.288 193.909 585.16C192.415 586.405 190.315 588.22 187.468 590.783C180.493 597.064 168.642 601.192 158.553 605.409C157.272 605.943 156.08 606.477 154.959 607.028C154.123 607.438 153.322 607.847 152.575 608.238C144.319 612.687 141.703 616.957 141.098 620.053C140.511 623.025 141.792 624.946 141.792 624.946Z" fill="#0875F7"/>
<path d="M152.557 608.256C154.817 610.053 159.852 613.665 163.892 613.665C164.07 613.665 164.247 613.665 164.425 613.648C167.272 613.416 177.735 608.274 186.258 603.594C191.134 600.907 195.6 598.274 198.803 596.156C204.052 592.687 204.977 591.37 205.173 590.445C205.938 586.975 200.208 584.573 196.187 583.309C195.689 583.701 194.942 584.306 193.909 585.178C198.892 586.53 203.002 588.665 202.806 589.875C202.308 590.907 197.112 594.857 184.692 601.672C175.208 606.868 166.223 611.05 164.23 611.228C161.525 611.441 157.557 608.986 154.959 607.046C154.087 607.437 153.304 607.847 152.557 608.256Z" fill="#084FC7"/>
<path d="M141.792 624.946H229.621C230.28 623.754 230.636 622.082 230.778 620.071H141.08C140.511 623.025 141.792 624.946 141.792 624.946Z" fill="#084FC7"/>
<path d="M220.653 624.946H223.269C220.671 621.975 218.233 617.402 218.554 610.889C218.981 602.206 224.176 596.37 227.806 593.309C227.664 592.437 227.539 591.619 227.45 590.889C223.554 593.861 216.988 600.391 216.472 610.783C216.151 617.01 218.198 621.655 220.653 624.946Z" fill="#084FC7"/>
<path d="M188.927 595.978C189.568 595.978 190.173 595.534 190.333 594.875C190.529 594.092 190.048 593.309 189.283 593.114L183.803 591.743C183.02 591.548 182.237 592.028 182.041 592.793C181.845 593.576 182.326 594.359 183.091 594.555L188.571 595.925C188.696 595.961 188.82 595.978 188.927 595.978Z" fill="white"/>
<path d="M194.39 591.405C195.048 591.405 195.635 590.96 195.796 590.302C195.991 589.519 195.511 588.736 194.746 588.541L189.265 587.17C188.482 586.975 187.699 587.455 187.504 588.22C187.308 589.003 187.788 589.786 188.554 589.982L194.034 591.352C194.159 591.388 194.265 591.405 194.39 591.405Z" fill="white"/>
<path d="M183.447 599.163C184.087 599.163 184.692 598.719 184.852 598.06C185.048 597.277 184.568 596.494 183.803 596.316L178.322 594.946C177.539 594.751 176.756 595.231 176.561 595.996C176.365 596.779 176.845 597.562 177.61 597.758L183.091 599.128C183.215 599.146 183.34 599.163 183.447 599.163Z" fill="white"/>
<path d="M177.966 602.224C178.607 602.224 179.212 601.779 179.372 601.121C179.568 600.338 179.087 599.555 178.322 599.377L172.842 598.007C172.059 597.811 171.276 598.292 171.08 599.057C170.884 599.84 171.365 600.623 172.13 600.818L177.61 602.188C177.735 602.206 177.842 602.224 177.966 602.224Z" fill="white"/>
<path d="M171.988 605.053C172.628 605.053 173.233 604.608 173.393 603.95C173.589 603.167 173.109 602.384 172.344 602.206L166.863 600.836C166.08 600.64 165.297 601.121 165.102 601.886C164.906 602.669 165.386 603.452 166.151 603.647L171.632 605.018C171.756 605.053 171.863 605.053 171.988 605.053Z" fill="white"/>
<path d="M165.493 607.473C166.151 607.473 166.739 607.028 166.899 606.37C167.094 605.587 166.614 604.804 165.849 604.608L160.368 603.238C159.585 603.042 158.803 603.523 158.607 604.288C158.411 605.071 158.892 605.854 159.657 606.049L165.137 607.42C165.262 607.455 165.386 607.473 165.493 607.473Z" fill="white"/>
<path d="M77.0052 327.704V334.999C77.0052 339.198 79.5318 342.597 82.6635 342.597H476.739C479.871 342.597 482.398 339.198 482.398 334.999V327.704C482.398 323.504 479.871 320.106 476.739 320.106H82.6813C79.5497 320.106 77.0052 323.504 77.0052 327.704Z" fill="#21B573"/>
<path d="M77.0052 330.017H482.398V333.362H77.0052V330.017Z" fill="#217C58"/>
<path d="M88.8557 361.333H459.266C460.921 361.333 462.273 359.981 462.273 358.326V342.49H85.8486V358.326C85.8486 359.981 87.2009 361.333 88.8557 361.333Z" fill="#217C58"/>
<path d="M105.493 454.287H436.757V467.206H105.493V454.287Z" fill="#217C58"/>
<path d="M460.636 627.242L396.508 361.333H419.035L483.163 627.242H460.636Z" fill="#21B573"/>
<path d="M82.0408 627.242L146.187 361.333H123.66L59.5318 627.242H82.0408Z" fill="#21B573"/>
<path d="M446.433 258.994L453.381 260.059L445.35 312.491L438.403 311.427L446.433 258.994Z" fill="#FAAF3A"/>
<path d="M446.419 258.967L453.359 260.034L451.829 254.732L451.046 251.974L449.462 254.358L446.419 258.967Z" fill="#EA9B7A"/>
<path d="M438.993 307.61L445.941 308.675L445.356 312.491L438.408 311.427L438.993 307.61Z" fill="#39393B"/>
<path d="M438.376 314.501L444.408 315.426C444.657 315.462 444.906 315.284 444.942 315.035L445.333 312.455L438.376 311.387L437.985 313.967C437.949 314.234 438.127 314.465 438.376 314.501Z" fill="#DF615C"/>
<path d="M449.462 254.358L451.828 254.732L451.045 251.974L449.462 254.358Z" fill="#39393B"/>
<path d="M439.386 304.871L446.334 305.935L445.916 308.661L438.969 307.597L439.386 304.871Z" fill="#C77E2E"/>
<path d="M451.241 262.348L445.298 301.173C445.245 301.476 444.978 301.672 444.693 301.618C444.408 301.565 444.195 301.298 444.248 301.013L450.191 262.187C450.245 261.903 450.512 261.689 450.796 261.743C451.081 261.778 451.294 262.063 451.241 262.348Z" fill="#C77E2E"/>
<path d="M448.519 261.938L442.576 300.764C442.522 301.049 442.255 301.262 441.971 301.209C441.668 301.155 441.472 300.888 441.526 300.604L447.469 261.778C447.522 261.493 447.789 261.28 448.074 261.333C448.358 261.369 448.572 261.636 448.519 261.938Z" fill="#C77E2E"/>
<path d="M433.836 259.206L440.865 259.229L440.69 312.272L433.662 312.249L433.836 259.206Z" fill="#21B573"/>
<path d="M433.839 259.216L440.867 259.234L438.572 254.216L437.38 251.6L436.17 254.198L433.839 259.216Z" fill="#EA9B7A"/>
<path d="M433.684 308.406L440.713 308.429L440.7 312.29L433.671 312.267L433.684 308.406Z" fill="#39393B"/>
<path d="M434.123 315.319L440.227 315.337C440.494 315.337 440.689 315.124 440.689 314.874V312.277L433.661 312.259V314.857C433.661 315.106 433.857 315.319 434.123 315.319Z" fill="#DF615C"/>
<path d="M436.17 254.198L438.572 254.216L437.38 251.6L436.17 254.198Z" fill="#39393B"/>
<path d="M433.7 305.63L440.729 305.653L440.72 308.411L433.691 308.388L433.7 305.63Z" fill="#217C58"/>
<path d="M439.124 261.849L438.999 301.12C438.999 301.422 438.75 301.654 438.465 301.654C438.163 301.654 437.931 301.405 437.931 301.12L438.056 261.849C438.056 261.547 438.305 261.316 438.59 261.316C438.874 261.298 439.124 261.547 439.124 261.849Z" fill="#217C58"/>
<path d="M436.365 261.831L436.241 301.102C436.241 301.404 435.992 301.636 435.707 301.636C435.405 301.636 435.173 301.387 435.173 301.102L435.298 261.831C435.298 261.529 435.547 261.298 435.832 261.298C436.116 261.298 436.365 261.529 436.365 261.831Z" fill="#217C58"/>
<path d="M428.652 258.943L436.109 311.461L429.151 312.449L421.693 259.932L428.652 258.943Z" fill="#0875F7"/>
<path d="M421.704 259.963L428.661 258.967L425.672 254.323L424.106 251.92L423.287 254.661L421.704 259.963Z" fill="#EA9B7A"/>
<path d="M428.591 308.674L435.55 307.686L436.093 311.509L429.134 312.497L428.591 308.674Z" fill="#39393B"/>
<path d="M430.049 315.444L436.081 314.59C436.33 314.554 436.508 314.323 436.472 314.056L436.099 311.476L429.141 312.472L429.515 315.052C429.568 315.301 429.8 315.479 430.049 315.444Z" fill="#DF615C"/>
<path d="M423.287 254.661L425.672 254.323L424.106 251.92L423.287 254.661Z" fill="#39393B"/>
<path d="M435.173 304.925L435.561 307.656L428.602 308.645L428.214 305.914L435.173 304.925Z" fill="#084FC7"/>
<path d="M427.309 261.796L432.825 300.675C432.86 300.978 432.664 301.245 432.362 301.28C432.059 301.316 431.793 301.12 431.757 300.818L426.241 261.938C426.205 261.636 426.401 261.369 426.704 261.333C426.988 261.298 427.255 261.511 427.309 261.796Z" fill="#084FC7"/>
<path d="M424.568 262.188L430.084 301.067C430.12 301.369 429.924 301.636 429.622 301.672C429.319 301.707 429.052 301.511 429.017 301.209L423.501 262.33C423.465 262.027 423.661 261.76 423.963 261.725C424.266 261.689 424.533 261.885 424.568 262.188Z" fill="#084FC7"/>
<path d="M419.408 280.194L419.782 283.041L420.12 285.621L420.618 289.536L420.956 292.098L421.454 296.048L421.793 298.575L422.309 302.561L422.629 305.052L423.145 309.073L423.465 311.529L423.981 315.586L424.301 318.006L424.568 320.106H452.22L452.487 318.006L452.807 315.586L453.323 311.529L453.643 309.073L454.159 305.052L454.479 302.561L454.996 298.575L455.316 296.048L455.832 292.098L456.152 289.536L456.668 285.621L457.006 283.041L457.362 280.194H419.408Z" fill="#DF615C"/>
<path d="M419.782 283.041L420.12 285.621H456.668L457.006 283.041H419.782Z" fill="#B11722"/>
<path d="M420.618 289.536L420.956 292.099H455.832L456.152 289.536H420.618Z" fill="#B11722"/>
<path d="M421.454 296.049L421.793 298.576H454.996L455.316 296.049H421.454Z" fill="#B11722"/>
<path d="M422.309 302.561L422.629 305.052H454.159L454.479 302.561H422.309Z" fill="#B11722"/>
<path d="M423.145 309.073L423.465 311.529H453.323L453.643 309.073H423.145Z" fill="#B11722"/>
<path d="M423.981 315.586L424.301 318.006H452.487L452.807 315.586H423.981Z" fill="#B11722"/>
<path d="M79.3005 179.091L102.877 278.807L103.5 281.422L105.083 288.13C105.777 291.049 108.358 293.095 111.347 293.095H270.191C274.354 293.095 277.415 289.216 276.454 285.177L250.671 176.119C249.977 173.219 247.397 171.173 244.408 171.173H85.5817C81.4179 171.173 78.3574 175.052 79.3005 179.091Z" fill="#39393B"/>
<path d="M102.895 278.789L103.5 281.422H268.429V278.789H102.895Z" fill="#585859"/>
<path d="M206.187 195.835C207.504 202.899 214.301 208.629 221.365 208.629C228.429 208.629 233.091 202.899 231.774 195.835C230.458 188.771 223.66 183.041 216.596 183.041C209.514 183.041 204.87 188.771 206.187 195.835Z" fill="#FAAF3A"/>
<path d="M220.635 193.397C220.902 194.803 221.614 195.959 222.219 195.959C222.842 195.959 223.127 194.82 222.86 193.397C222.593 191.991 221.881 190.835 221.276 190.835C220.653 190.835 220.368 191.974 220.635 193.397Z" fill="#39393B"/>
<path d="M213.963 193.397C214.23 194.803 214.941 195.959 215.546 195.959C216.151 195.959 216.454 194.82 216.187 193.397C215.92 191.991 215.208 190.835 214.603 190.835C213.981 190.835 213.696 191.974 213.963 193.397Z" fill="#39393B"/>
<path d="M220.031 202.08C225.529 202.08 225.76 196.582 225.76 196.529C225.778 196.226 225.529 195.924 225.208 195.87C224.888 195.799 224.639 195.995 224.621 196.297C224.621 196.493 224.408 200.977 219.799 200.977C215.208 200.977 213.322 196.493 213.233 196.297C213.109 195.995 212.771 195.817 212.486 195.87C212.201 195.942 212.059 196.226 212.184 196.529C212.237 196.564 214.532 202.08 220.031 202.08Z" fill="#39393B"/>
<path d="M132.753 255.586C132.61 262.205 121.4 270.497 121.4 270.497C121.4 270.497 108.375 262.205 106.792 255.586C105.084 248.415 113.269 246.209 119.336 251.618C124.229 246.209 132.913 248.415 132.753 255.586Z" fill="#DF615C"/>
<path d="M156.489 236.387C157.254 243.255 163.429 248.806 170.279 248.806C177.13 248.806 182.094 243.237 181.329 236.387C180.564 229.518 174.39 223.967 167.539 223.967C160.671 223.967 155.724 229.536 156.489 236.387Z" fill="#585859"/>
<path d="M238.109 171.173L265.564 293.095H270.191C274.354 293.095 277.415 289.216 276.454 285.177L250.671 176.119C249.977 173.219 247.397 171.155 244.408 171.155H238.109V171.173Z" fill="#585859"/>
<path d="M192.112 293.095L196.934 320.195H181.009L176.187 293.095H192.112Z" fill="white"/>
<path d="M220.742 315.533L217.486 310.96C216.329 309.323 214.443 308.362 212.433 308.362H168.803C166.489 308.362 164.372 309.643 163.304 311.689L161.116 315.889C160.084 317.846 161.507 320.213 163.731 320.213H218.34C220.742 320.195 222.13 317.472 220.742 315.533Z" fill="white"/>
<path d="M311.65 320.177H180.582L179.158 315.23C178.269 312.116 180.6 309.02 183.838 309.02H304.782C306.952 309.02 308.856 310.462 309.461 312.543L311.65 320.177Z" fill="white"/>
<path d="M139.799 138.611L197.771 138.575C200.013 138.575 201.845 136.742 201.845 134.5L201.828 98.8773C201.828 96.6353 199.995 94.8026 197.753 94.8026L139.781 94.8382C137.539 94.8382 135.706 96.6709 135.706 98.9129L135.724 134.536C135.724 136.796 137.539 138.611 139.799 138.611Z" fill="#DF615C"/>
<path d="M143.251 132.045L148.536 152.009L157.771 133.237L143.251 132.045Z" fill="#DF615C"/>
<path d="M154.123 113.486C155.297 120.959 169.265 130.319 169.265 130.319C169.265 130.319 182.699 120.941 183.465 113.45C184.301 105.336 174.692 102.863 168.66 108.984C162.308 102.881 152.842 105.372 154.123 113.486Z" fill="white"/>
<path d="M98.7192 604.687C44.1981 604.687 1.52588e-05 600.321 1.52588e-05 594.936C1.52588e-05 589.551 44.1981 585.185 98.7192 585.185C153.24 585.185 197.438 589.551 197.438 594.936C197.438 600.321 153.24 604.687 98.7192 604.687Z" fill="#CED3E6"/>
<path d="M38.2742 524.42H162.901C165.267 524.42 167.189 522.498 167.189 520.132V518.156C167.189 515.79 165.267 513.868 162.901 513.868H38.2742C35.9076 513.868 33.986 515.79 33.986 518.156V520.132C33.986 522.498 35.9076 524.42 38.2742 524.42Z" fill="#39393B"/>
<path d="M161.335 396.982H39.5731C37.5446 396.982 35.9076 398.619 35.9076 400.647V415.612C35.9076 417.64 37.5446 419.277 39.5731 419.277H161.335C163.364 419.277 165.001 417.64 165.001 415.612V400.647C165.001 398.619 163.364 396.982 161.335 396.982Z" fill="#585859"/>
<path d="M132.58 302.142C132.58 302.142 183.915 292 198.239 256.181C212.563 220.362 160.178 193.494 132.58 212.729C103.043 233.298 132.58 302.142 132.58 302.142Z" fill="#21B573"/>
<path d="M102.047 396.253C102.492 396.253 102.901 395.915 102.972 395.452C107.883 362.178 127.723 314.313 143.47 280.024C160.57 242.836 176.691 213.156 176.851 212.853C177.1 212.409 176.922 211.839 176.477 211.59C176.033 211.341 175.463 211.519 175.214 211.964C175.054 212.266 158.897 241.999 141.762 279.242C125.944 313.654 106.05 361.697 101.104 395.185C101.032 395.701 101.37 396.164 101.886 396.235C101.958 396.235 102.011 396.253 102.047 396.253Z" fill="#39393B"/>
<path d="M134.502 298.672C134.84 298.672 135.161 298.494 135.321 298.192C157.652 256.608 193.915 226.43 194.271 226.128C194.662 225.807 194.716 225.22 194.396 224.829C194.075 224.437 193.488 224.384 193.097 224.704C192.723 225.007 156.193 255.398 133.684 297.32C133.435 297.765 133.613 298.334 134.057 298.583C134.218 298.637 134.36 298.672 134.502 298.672Z" fill="#39393B"/>
<path d="M133.488 301.661C133.755 301.661 134.004 301.555 134.2 301.341C150.481 282.177 167.171 270.256 178.292 263.636C190.357 256.466 198.666 253.779 198.737 253.761C199.218 253.601 199.502 253.085 199.342 252.587C199.182 252.106 198.666 251.821 198.168 251.982C197.83 252.088 189.609 254.722 177.385 261.999C166.122 268.69 149.235 280.754 132.776 300.131C132.438 300.523 132.492 301.11 132.883 301.448C133.061 301.59 133.292 301.661 133.488 301.661Z" fill="#39393B"/>
<path d="M138.008 290.754C138.399 290.754 138.755 290.505 138.88 290.131C151.406 253.388 146.798 208.743 146.744 208.298C146.691 207.782 146.228 207.427 145.73 207.48C145.214 207.533 144.858 207.996 144.912 208.494C144.965 208.939 149.52 253.192 137.136 289.526C136.976 290.007 137.225 290.541 137.723 290.701C137.812 290.736 137.919 290.754 138.008 290.754Z" fill="#39393B"/>
<path d="M134.858 298.032C135.303 298.032 135.694 297.711 135.766 297.249C139.591 273.992 136.655 255.024 133.506 243.209C130.089 230.38 125.819 223.156 125.641 222.853C125.374 222.409 124.805 222.266 124.36 222.533C123.915 222.8 123.773 223.369 124.04 223.814C124.075 223.886 128.381 231.163 131.726 243.779C134.805 255.398 137.687 274.081 133.933 296.964C133.844 297.462 134.2 297.943 134.698 298.032C134.769 298.014 134.823 298.032 134.858 298.032Z" fill="#39393B"/>
<path d="M78.4344 311.501C78.4344 311.501 26.5837 304.401 10.1602 269.508C-6.26335 234.597 44.4486 204.686 73.1319 222.248C103.844 241.038 78.4344 311.501 78.4344 311.501Z" fill="#21B573"/>
<path d="M98.0963 393.209C98.6123 393.209 99.0394 392.782 99.0216 392.266C98.8259 375.131 95.0892 355.612 87.9184 334.259C82.1889 317.195 74.2884 298.921 64.3951 279.953C47.5802 247.658 30.6406 224.188 30.4627 223.956C30.1602 223.547 29.573 223.44 29.1638 223.743C28.7545 224.045 28.6478 224.633 28.9502 225.042C29.1104 225.273 45.9787 248.654 62.7404 280.825C78.1852 310.487 96.6907 353.886 97.1355 392.284C97.1711 392.8 97.5803 393.209 98.0963 393.209Z" fill="#39393B"/>
<path d="M76.2458 308.156C76.4059 308.156 76.5838 308.121 76.7262 308.014C77.171 307.747 77.2956 307.178 77.0287 306.733C52.082 266.217 13.8079 238.031 13.4165 237.747C13.0072 237.444 12.4199 237.533 12.1174 237.942C11.815 238.352 11.904 238.939 12.3133 239.241C12.6869 239.526 50.6763 267.498 75.4273 307.694C75.623 307.996 75.9255 308.156 76.2458 308.156Z" fill="#39393B"/>
<path d="M77.4379 311.074C77.6693 311.074 77.9005 310.985 78.0785 310.825C78.4522 310.469 78.47 309.882 78.1141 309.508C60.5162 291.128 42.9539 280.096 31.3169 274.081C18.6834 267.551 10.3382 265.398 9.98229 265.309C9.48407 265.184 8.98584 265.487 8.86128 265.985C8.73672 266.483 9.03923 266.982 9.53745 267.106C9.62642 267.124 18.0784 269.313 30.5339 275.754C42.0286 281.697 59.3774 292.622 76.7796 310.79C76.9397 310.967 77.1888 311.074 77.4379 311.074Z" fill="#39393B"/>
<path d="M72.2778 300.451C72.4024 300.451 72.5091 300.434 72.6337 300.38C73.1141 300.185 73.3277 299.651 73.1498 299.17C58.6302 263.619 60.5696 219.188 60.5874 218.743C60.6052 218.227 60.2137 217.8 59.6977 217.764C59.1995 217.729 58.7546 218.138 58.7191 218.654C58.7013 219.099 56.744 263.939 71.4059 299.882C71.5661 300.238 71.9041 300.451 72.2778 300.451Z" fill="#39393B"/>
<path d="M75.8543 307.533C75.9255 307.533 75.9966 307.533 76.0678 307.515C76.566 307.408 76.8864 306.91 76.7618 306.412C71.6372 283.779 73.4166 264.971 75.801 253.191C78.3989 240.415 82.2422 232.889 82.2778 232.8C82.5091 232.337 82.3312 231.785 81.8864 231.554C81.4237 231.323 80.8721 231.501 80.6408 231.946C80.4807 232.248 76.6551 239.721 74.0038 252.746C71.5661 264.739 69.7511 283.85 74.9468 306.821C75.0358 307.231 75.4273 307.533 75.8543 307.533Z" fill="#39393B"/>
<path d="M98.3988 243.956C98.3988 243.956 142.331 215.522 142.385 176.946C142.438 138.369 83.8258 132.817 65.3027 160.896C45.4628 190.949 98.3988 243.956 98.3988 243.956Z" fill="#21B573"/>
<path d="M104.538 342.729C104.609 342.729 104.68 342.729 104.751 342.711C105.249 342.587 105.552 342.089 105.445 341.59C97.6871 308.868 98.3811 257.053 100.321 219.366C102.42 178.494 106.424 144.935 106.459 144.615C106.513 144.099 106.157 143.636 105.641 143.583C105.143 143.529 104.662 143.885 104.609 144.401C104.573 144.739 100.57 178.351 98.4523 219.277C96.495 257.088 95.8189 309.081 103.612 342.017C103.737 342.444 104.111 342.729 104.538 342.729Z" fill="#39393B"/>
<path d="M98.5591 240.095C99.0217 240.095 99.431 239.739 99.4844 239.277C104.822 192.372 127.331 150.913 127.563 150.504C127.812 150.059 127.652 149.49 127.189 149.241C126.744 148.992 126.175 149.152 125.926 149.614C125.694 150.024 103.007 191.803 97.6338 239.081C97.5804 239.597 97.9363 240.059 98.4523 240.113C98.4879 240.095 98.5235 240.095 98.5591 240.095Z" fill="#39393B"/>
<path d="M98.7193 243.227C99.1107 243.227 99.4666 242.978 99.5911 242.586C107.616 218.743 118.701 201.501 126.584 191.234C135.125 180.095 141.851 174.543 141.922 174.49C142.314 174.17 142.385 173.583 142.047 173.191C141.726 172.8 141.139 172.728 140.748 173.067C140.463 173.298 133.826 178.778 125.161 190.059C117.171 200.451 105.961 217.889 97.8473 241.999C97.6872 242.48 97.9363 243.013 98.4345 243.173C98.5235 243.209 98.6125 243.227 98.7193 243.227Z" fill="#39393B"/>
<path d="M98.8793 231.43C98.8971 231.43 98.915 231.43 98.9328 231.43C99.4488 231.412 99.8402 230.967 99.8046 230.451C97.8295 191.696 77.011 151.928 76.8153 151.518C76.5662 151.056 76.0145 150.896 75.5519 151.127C75.0893 151.358 74.9291 151.928 75.1604 152.39C75.3739 152.782 95.9968 192.195 97.9363 230.54C97.9719 231.038 98.3811 231.43 98.8793 231.43Z" fill="#39393B"/>
<path d="M98.648 239.348C98.7191 239.348 98.7725 239.348 98.8437 239.33C99.3419 239.223 99.6622 238.725 99.5555 238.227C94.5021 215.202 84.7155 198.547 77.3845 188.618C69.4308 177.835 62.776 172.586 62.4913 172.373C62.082 172.052 61.4949 172.124 61.1924 172.533C60.8721 172.942 60.9433 173.529 61.3526 173.832C61.4237 173.885 68.1319 179.188 75.9433 189.775C83.1497 199.544 92.776 215.949 97.7405 238.618C97.8294 239.063 98.2209 239.348 98.648 239.348Z" fill="#39393B"/>
<path d="M44.7155 337.747L46.2457 341.804L47.2066 344.384L49.9824 351.75L50.961 354.331L53.808 361.911L54.7689 364.473L67.0109 396.964H133.879L146.121 364.473L147.082 361.911L149.929 354.331L150.908 351.75L153.684 344.384L154.645 341.804L156.175 337.747C157.225 334.953 155.161 331.982 152.189 331.982H48.6835C45.7298 331.982 43.6656 334.953 44.7155 337.747Z" fill="#0875F7"/>
<path d="M46.2457 341.804L47.2066 344.384H153.684L154.662 341.804H46.2457Z" fill="#084FC7"/>
<path d="M50.0002 351.75L50.961 354.33H149.947L150.908 351.75H50.0002Z" fill="#084FC7"/>
<path d="M53.8257 361.911L54.7867 364.473H146.121L147.082 361.911H53.8257Z" fill="#084FC7"/>
<path d="M118.363 419.259L122.064 431.217L173.684 597.587H183.773L151.05 434.615L147.954 419.259H118.363Z" fill="#39393B"/>
<path d="M16.8329 597.587H26.9218L80.0536 426.288L82.2423 419.259H52.6515L51.9042 422.996L16.8329 597.587Z" fill="#39393B"/>
<path d="M38.2742 501.484H162.901C165.267 501.484 167.189 499.562 167.189 497.195V495.22C167.189 492.854 165.267 490.932 162.901 490.932H38.292C35.9254 490.932 34.0038 492.854 34.0038 495.22V497.195C33.986 499.562 35.9076 501.484 38.2742 501.484Z" fill="#585859"/>
<path d="M195.25 101.495C168.599 101.495 146.994 80.1606 146.994 53.8435C146.994 27.5264 168.599 6.19214 195.25 6.19214C221.902 6.19214 243.507 27.5264 243.507 53.8435C243.507 80.1606 221.902 101.495 195.25 101.495Z" fill="#CED3E6"/>
<path d="M195.25 95.3027C168.599 95.3027 146.994 73.9685 146.994 47.6514C146.994 21.3342 168.599 0 195.25 0C221.902 0 243.507 21.3342 243.507 47.6514C243.507 73.9685 221.902 95.3027 195.25 95.3027Z" fill="#0875F7"/>
<path d="M195.25 86.3882C173.591 86.3882 156.033 69.0452 156.033 47.6514C156.033 26.2577 173.591 8.91467 195.25 8.91467C216.909 8.91467 234.468 26.2577 234.468 47.6514C234.468 69.0452 216.909 86.3882 195.25 86.3882Z" fill="white"/>
<path d="M156.033 47.6514C156.033 48.6835 156.069 49.6977 156.158 50.7119C157.741 30.7831 174.681 15.0357 195.268 15.0357C215.855 15.0357 232.777 30.7831 234.379 50.7119C234.45 49.6977 234.503 48.6835 234.503 47.6514C234.503 26.2813 216.905 8.91467 195.286 8.91467C173.631 8.91467 156.033 26.2813 156.033 47.6514Z" fill="#CED3E6"/>
<path d="M195.25 51.6727C195.553 51.6727 195.855 51.5304 196.033 51.2812L215.268 25.694C215.588 25.2669 215.5 24.662 215.072 24.3417C214.645 24.0214 214.023 24.1103 213.702 24.5374L194.93 49.5019L173.596 40.2492C173.097 40.0357 172.528 40.2492 172.297 40.7474C172.083 41.2456 172.297 41.815 172.795 42.0285L194.841 51.5837C194.983 51.6549 195.126 51.6727 195.25 51.6727Z" fill="#39393B"/>
</svg>
